<?xml version="1.0" encoding="utf-8"?>
<!-- Generator: Adobe Illustrator 22.1.0, SVG Export Plug-In . SVG Version: 6.00 Build 0)  -->
<svg version="1.1" id="Слой_1" xmlns="http://www.w3.org/2000/svg" xmlns:xlink="http://www.w3.org/1999/xlink" x="0px" y="0px"
	 viewBox="0 0 1000 1000" style="enable-background:new 0 0 1000 1000;" xml:space="preserve">
<style type="text/css">
	.st0{fill:#FFFFFF;}
</style>
<g>
	<path class="st0" d="M10,42.7c1.5,304.9,4.6,609.8,6.1,914.7c324.6,0,649.3,0,973.9,0c0-266.8,0-533.6,0-800.3
		c-153.1,0-306.3,0-459.4,0c0-38.1,0-76.2,0-114.3C357.1,42.7,183.5,42.7,10,42.7z M75.3,108c130,0,260,0,390,0
		c0,38.1,0,76.2,0,114.3c153.1,0,306.3,0,459.4,0c0,223.2,0,446.4,0,669.7c-281.1,0-562.1,0-843.2,0C79.4,630.7,77.4,369.3,75.3,108
		z"/>
	<path class="st0" d="M428.7,272.2c-127.4,0.7-237,129-215.9,255.1c12.9,107,110,201,219.9,198.4c47.3,0.6,94.9-13.3,133.7-40.6
		c54,51.3,108,102.6,161.9,153.8c27.3,28,83.4-13.3,45.4-38.2c-54.8-51.5-108.4-104.2-162.8-156.1c87.7-97.3,61.4-270.8-52.3-336.6
		C520.2,283.4,474.3,270,428.7,272.2z M430.7,332.9c105-8,198.4,104.6,169.2,206.3C579.2,627.9,477,690.1,389.4,659.4
		C309.9,635.7,253.9,546.8,275.1,465C290.6,393.4,356.3,334,430.7,332.9z"/>
</g>
</svg>
