<?xml version="1.0" encoding="utf-8"?>
<!-- Generator: Adobe Illustrator 22.1.0, SVG Export Plug-In . SVG Version: 6.00 Build 0)  -->
<svg version="1.1" id="Слой_1" xmlns="http://www.w3.org/2000/svg" xmlns:xlink="http://www.w3.org/1999/xlink" x="0px" y="0px"
	 viewBox="0 0 512.4 516.7" style="enable-background:new 0 0 512.4 516.7;" xml:space="preserve">
<style type="text/css">
	.st0{fill:#FFFFFF;}
</style>
<path class="st0" d="M40.7,1.6c-14.2,4.3-29,17.1-36,31C-0.6,43.3-1.6,62.9,2.7,76c3.3,10.5,9,16.6,89.2,97l85.4,85.7l-84.7,84.9
	c-46.4,46.4-86.1,87.9-88.1,91.8c-5.3,10.1-5.3,39.2,0,49.3c5.1,10.1,17.3,22.2,26.9,27.3c11.1,6,39.5,6.4,50.3,0.6
	c3.9-2,44.8-41.3,91-87.1l83.6-83.6l83.8,83.6c46,45.8,86.9,85.1,90.8,87.1c10.9,5.8,39.2,5.3,50.3-0.6c9.7-5.1,21.8-17.3,26.9-27.3
	c5.3-10.1,5.3-39.2,0-49.3c-2-3.9-41.7-45.4-88.1-92l-84.6-84.6l84.6-84.9c46.4-46.4,86.1-87.9,88.1-91.8
	c5.7-10.9,5.3-39.2-0.6-50.3c-5.1-9.7-17.3-21.8-27.3-26.9c-10.1-5.3-39.2-5.3-49.3,0c-3.9,2-44.8,41.3-90.8,87.1l-83.8,83.6
	l-83.8-83.8C98.4,17.5,87.7,7.6,78.1,3.9C67.2-0.2,50.3-1.2,40.7,1.6z"/>
</svg>
