<?xml version="1.0" encoding="utf-8"?>
<!-- Generator: Adobe Illustrator 22.1.0, SVG Export Plug-In . SVG Version: 6.00 Build 0)  -->
<svg version="1.1" id="Слой_1" xmlns="http://www.w3.org/2000/svg" xmlns:xlink="http://www.w3.org/1999/xlink" x="0px" y="0px"
	 viewBox="0 0 670 301.5" style="enable-background:new 0 0 670 301.5;" xml:space="preserve">
<style type="text/css">
	.st0{fill:#fff;}
</style>
<path class="st0" d="M311.7,224.2c17.2,0,31.1,13.9,31.1,30.9s-14,30.9-31.1,30.9c-17.2,0-31.2-13.9-31.2-30.9
	S294.5,224.2,311.7,224.2z M0,236.6h185.1v-15.4H0V236.6z M143.1,184.5h15.6v-15.4h-15.6V184.5z M174.3,184.5h28.3v70.6
	c0,4.3,3.5,7.7,7.8,7.7h55.2c3.7,21.9,23,38.7,46.1,38.7c23.1,0,42.4-16.7,46.1-38.7h148.6c0.1,0,0.3,0,0.5,0h23.6
	c3.7,21.9,23,38.7,46.1,38.7c23.1,0,42.4-16.7,46.1-38.7h39.6v0c4.3,0,7.8-3.5,7.8-7.7v-85c0-1.5-0.4-2.9-1.2-4.2L598.7,57.7
	c-1.4-2.2-3.9-3.6-6.5-3.6h-77.9V7.7c0-4.3-3.5-7.7-7.8-7.7h-296c-4.3,0-7.8,3.5-7.8,7.7v48.3h-66.3v15.4h66.3v97.6h-28.3V184.5z
	 M218.2,184.5h141.2v-15.4H218.2V15.5h280.4v15.5H233.8v15.5h264.8v170.1H366.2v15.5h132.4v15.5H357.8c-3.7-21.9-23-38.7-46.1-38.7
	c-23.1,0-42.4,16.7-46.1,38.7h-47.4v-15.5h38.9v-15.5h-38.9V184.5z M105.2,71.5h15.6V56.1h-15.6V71.5z M568.7,262.9h15.6v-15.5
	h-15.6V262.9z M303.9,262.9h15.6v-15.5h-15.6V262.9z M631,231.9h23.4v15.5h-31.8c-3.7-21.9-23-38.7-46.1-38.7
	c-23.1,0-42.3,16.7-46.1,38.6h-16.2V69.6h73.6l10,15.5h-60.3c-4.3,0-7.8,3.5-7.8,7.7v69.6c0,4.3,3.5,7.7,7.8,7.7H653l1.5,2.3v44.1
	H631V231.9z M607.7,100.2l35.3,54.4h-97.6v-54.1h62.3V100.2z M576.5,224.2c17.2,0,31.2,13.9,31.2,30.9s-14,30.9-31.2,30.9
	c-17.2,0-31.1-13.9-31.1-30.9S559.3,224.2,576.5,224.2z"/>
</svg>
