<?xml version="1.0" encoding="utf-8"?>
<!-- Generator: Adobe Illustrator 22.1.0, SVG Export Plug-In . SVG Version: 6.00 Build 0)  -->
<svg version="1.1" id="Capa_1" xmlns="http://www.w3.org/2000/svg" xmlns:xlink="http://www.w3.org/1999/xlink" x="0px" y="0px"
	 viewBox="0 0 436.7 436.7" style="enable-background:new 0 0 436.7 436.7;" xml:space="preserve">
<style type="text/css">
	.st0{fill:#fff;}
</style>
<path class="st0" d="M127,150c10.7,6.4,22.7,9.6,34.8,9.6c12,0,24-3.2,34.8-9.6c25.5-15.1,39.3-45.1,37.9-82.2
	C232.7,22.9,195.7,1.2,162.1,0c-0.2,0-0.5,0-0.7,0C127.7,1.2,90.7,22.9,89,67.8C87.6,104.9,101.5,134.9,127,150z M161.7,20.4
	c25.1,1,50.9,15.3,52.6,47.3H207c-11.4-13-27.6-21-45.2-21c0,0,0,0,0,0c-17.7,0-33.9,8-45.3,21h-7.4
	C110.9,35.7,136.6,21.4,161.7,20.4z M121.8,87.5c1.4-0.1,2.8-0.6,4-1.2c1.2-0.6,3.4-3,3.6-3.2c7.6-10.3,19.4-16.4,32.4-16.4
	c0,0,0,0,0,0c13,0,24.8,6.2,32.4,16.6c1.9,2.6,4.9,4.4,8.1,4.4h11.3c-3,20-12.5,36.5-27.2,45.3c-15.1,9-33.9,9.1-49.1,0.1
	c-14.8-8.8-24.3-25.4-27.2-45.4C109.9,87.7,121.6,87.5,121.8,87.5z M254.1,358.7c0,5.5-4.5,10-10,10h-14.4c-5.5,0-10-4.5-10-10
	s4.5-10,10-10h14.4C249.6,348.7,254.1,353.2,254.1,358.7z M377.2,240.7H269c-5.5,0-9.6,4.2-9.6,9.8v27.3c0,0.7,0.3,3.5,0.6,4.1
	s0.6,1.3,1,1.9c0.4,0.6,0.9,1.1,1.4,1.6c0.5,0.5,3,2,3.7,2.2l52.8,18.4c1.3,0.4,2.6,0.6,3.8,0.5c1.3,0.1,2.6-0.1,3.9-0.5l40.9-14.2
	v47h-79v-20.5c0-5.5-4.2-9.5-9.8-9.5H254c-0.7-5-5-8.9-10.1-8.9l-14.6-0.1v0.2c-5,0-8.9,3.8-9.6,8.8h-24.6c-5.5,0-9.9,4-9.9,9.5
	v108.2c0,5.5,4.3,10.3,9.9,10.3h83.4c5.5,0,9.8-4.8,9.8-10.3v-67.7h88.9c5.5,0,10.1-4.8,10.1-10.3v-97.9
	C387.3,245,382.7,240.7,377.2,240.7z M268.3,416.7h-63v-88h14.5c0.9,4,4.9,8,9.8,8h14.4c4.9,0,8.9-4,9.8-8h14.4V416.7z M367.3,270.6
	l-44.5,15.6L279.3,271v-10.2h88V270.6z M92.8,248.6L71.4,364l70.8,0c5.5,0,10,4.5,10,10c0,5.5-4.5,10-10,10l-82.8,0
	c-3,0-5.8-1.3-7.7-3.6c-1.9-2.3-2.7-5.3-2.1-8.2l23.6-127.2c5.9-31.9,30.8-55.2,66.6-62.5c18.3-3.7,38-2.7,55.4,3
	c19.1,6.2,34.4,17.4,44.3,32.3c3,4.6,1.8,10.8-2.8,13.9c-4.6,3-10.8,1.8-13.9-2.8c-14.6-22.2-47.1-33.2-79-26.7
	C116.2,207.7,97.2,225,92.8,248.6z M194,263.7h-14.4c-5.5,0-10-4.5-10-10s4.5-10,10-10H194c5.5,0,10,4.5,10,10
	S199.5,263.7,194,263.7z"/>
</svg>
