<?xml version="1.0" encoding="utf-8"?>
<!-- Generator: Adobe Illustrator 22.1.0, SVG Export Plug-In . SVG Version: 6.00 Build 0)  -->
<svg version="1.1" id="Capa_1" xmlns="http://www.w3.org/2000/svg" xmlns:xlink="http://www.w3.org/1999/xlink" x="0px" y="0px"
	 viewBox="0 0 438.5 438.5" style="enable-background:new 0 0 438.5 438.5;" xml:space="preserve">
<style type="text/css">
	.st0{fill:#FFFFFF;}
</style>
<g>
	<path class="st0" d="M396.3,130.2c-3.8-9.1-8.4-16.4-13.7-21.7l-89.1-89.1c-5.3-5.3-12.6-9.9-21.7-13.7C262.7,1.9,254.3,0,246.7,0
		H64c-7.6,0-14.1,2.7-19.4,8c-5.3,5.3-8,11.8-8,19.4v383.7c0,7.6,2.7,14.1,8,19.4c5.3,5.3,11.8,8,19.4,8h310.6
		c7.6,0,14.1-2.7,19.4-8c5.3-5.3,8-11.8,8-19.4V155.3C402,147.7,400.1,139.3,396.3,130.2z M255.8,38.8c5.5,1.9,9.4,4,11.7,6.3
		l89.4,89.4c2.3,2.3,4.4,6.2,6.3,11.7H255.8V38.8z M365.4,402H73.1V36.5h146.2v118.8c0,7.6,2.7,14.1,8,19.4c5.3,5.3,11.8,8,19.4,8
		h118.8V402z"/>
</g>
</svg>
