<?xml version="1.0" encoding="utf-8"?>
<!-- Generator: Adobe Illustrator 22.1.0, SVG Export Plug-In . SVG Version: 6.00 Build 0)  -->
<svg version="1.1" id="Слой_1" xmlns="http://www.w3.org/2000/svg" xmlns:xlink="http://www.w3.org/1999/xlink" x="0px" y="0px"
	 viewBox="0 0 48 48" style="enable-background:new 0 0 48 48;" xml:space="preserve">
<style type="text/css">
	.st0{fill:#27D1E3;}
</style>
<g id="Expanded">
	<g>
		<g>
			<path class="st0" d="M24,47.8l-0.8-1.2C22.6,45.7,8,24.5,8,16C8,7.2,15.2,0,24,0s16,7.2,16,16c0,8.5-14.6,29.7-15.2,30.6L24,47.8
				z M24,2c-7.7,0-14,6.3-14,14c0,6.8,10.9,23.6,14,28.2c3.1-4.7,14-21.4,14-28.2C38,8.3,31.7,2,24,2z"/>
		</g>
		<g>
			<path class="st0" d="M24,23c-3.9,0-7-3.1-7-7s3.1-7,7-7s7,3.1,7,7S27.9,23,24,23z M24,11c-2.8,0-5,2.2-5,5s2.2,5,5,5s5-2.2,5-5
				S26.8,11,24,11z"/>
		</g>
	</g>
</g>
</svg>
