<?xml version="1.0" encoding="utf-8"?>
<!-- Generator: Adobe Illustrator 22.1.0, SVG Export Plug-In . SVG Version: 6.00 Build 0)  -->
<svg version="1.1" id="Capa_1" xmlns="http://www.w3.org/2000/svg" xmlns:xlink="http://www.w3.org/1999/xlink" x="0px" y="0px"
	 viewBox="0 0 75.3 75.3" style="enable-background:new 0 0 75.3 75.3;" xml:space="preserve">
<style type="text/css">
	.st0{fill:#FFFFFF;}
</style>
<g>
	<path class="st0" d="M66.1,12.1H9.2c-5.1,0-9.2,4.1-9.2,9.2V54c0,5.1,4.1,9.2,9.2,9.2h56.9c5.1,0,9.2-4.1,9.2-9.2V21.3
		C75.3,16.2,71.2,12.1,66.1,12.1z M61.6,18.1l-24,15.4l-24-15.4H61.6z M66.1,57.2H9.2C7.4,57.2,6,55.8,6,54V21.5l29.8,19.2
		c0,0,0.1,0,0.1,0.1c0,0,0.1,0,0.1,0.1c0.2,0.1,0.5,0.2,0.7,0.3c0,0,0,0,0.1,0c0.3,0.1,0.5,0.1,0.8,0.1c0,0,0,0,0,0c0,0,0,0,0,0
		c0.3,0,0.5,0,0.8-0.1c0,0,0,0,0.1,0c0.2-0.1,0.5-0.2,0.7-0.3c0,0,0.1,0,0.1-0.1c0,0,0.1,0,0.1-0.1l29.8-19.2V54
		C69.3,55.8,67.9,57.2,66.1,57.2z"/>
</g>
</svg>
