<?xml version="1.0" encoding="utf-8"?>
<!-- Generator: Adobe Illustrator 22.1.0, SVG Export Plug-In . SVG Version: 6.00 Build 0)  -->
<svg version="1.1" id="Capa_1" xmlns="http://www.w3.org/2000/svg" xmlns:xlink="http://www.w3.org/1999/xlink" x="0px" y="0px"
	 viewBox="0 0 489.3 489.3" style="enable-background:new 0 0 489.3 489.3;" xml:space="preserve">
<style type="text/css">
	.st0{fill:#FFFFFF;}
</style>
<g>
	<path class="st0" d="M486.3,215.7L192.8,46.3c-4-2.3-10.6-2.3-14.6,0L3.2,148c-4,2.3-4,6.1,0,8.5l293.4,169.4
		c4.1,2.4,10.6,2.3,14.6,0l175-101.7C490.3,221.9,490.3,218.1,486.3,215.7z M333.3,286.7c-1.6-1.6-3.6-3-5.9-4.3
		c-14.9-8.6-39-8.6-53.9,0c-1.1,0.7-2.1,1.3-3.1,2.1L72.7,170.3c1.9-0.8,3.7-1.6,5.4-2.6c14.8-8.6,14.7-22.6-0.2-31.2
		c-1.6-0.9-3.4-1.8-5.2-2.5l81.5-47.4c1.3,1,2.7,2.1,4.3,3c14.9,8.6,39.1,8.6,53.9,0c1.7-1,3.2-2,4.5-3.1L415.2,201
		c-2.6,0.9-5.1,2-7.4,3.3c-14.8,8.6-14.7,22.6,0.2,31.2c2.3,1.3,4.9,2.4,7.6,3.4L333.3,286.7z M357.2,243.5l-12.9,7.5
		c-2,1.1-5.2,1.2-7.2,0l-22.7-13.1c-2-1.2-2-3,0-4.2l12.9-7.5c2-1.1,5.2-1.2,7.2,0l22.7,13.1C359.2,240.5,359.2,242.4,357.2,243.5z
		 M175.2,138.4l-12.9,7.5c-2,1.1-5.2,1.2-7.2,0l-22.7-13.1c-2-1.2-2-3,0-4.2l12.9-7.5c2-1.1,5.2-1.2,7.2,0l22.7,13.1
		C177.2,135.4,177.1,137.3,175.2,138.4z M466.5,267.8l22.8,13.2L305.9,387.5l-6-3.4l-16.9-9.7L0,210.9l22.7-13.2l283,163.5
		L466.5,267.8z M283.4,431.7L0.1,267.8l22.6-13.1l283.4,163.8l160-93l22.8,13.2L306.2,444.8l-5.9-3.4L283.4,431.7z M303.1,152.3
		c-32.3-18.6-84.5-18.6-116.7,0.1s-32.1,48.9,0.2,67.6c32.2,18.6,84.4,18.6,116.6-0.1C335.3,201.1,335.3,170.9,303.1,152.3z
		 M292.3,183.7c-2.5,0.6-5.1,1.2-7.6,1.8c-1.8,0.4-3,0.3-4.1-0.4c-0.3-0.2-0.5-0.3-0.8-0.6c-1.7-1.6-3.2-3.3-5-4.8
		c-1.6-1.4-3.4-2.7-5.4-3.9c-2.7-1.5-5.7-2.8-9.4-3.7c-5.5-1.4-10.9-1-16.3,0.2l-0.2,0.1l13.7,7.9c1.1,0.7,1.1,1.7,0,2.4l-4.5,2.6
		c-1.1,0.7-2.9,0.7-4.1,0l-15.7-9.1c-1.2,0.7-2.4,1.4-3.7,2.1l15.7,9.1c1.1,0.7,1.1,1.7,0,2.4l-4.5,2.6c-1.1,0.7-2.9,0.7-4.1,0
		l-14.3-8.3c-3.2,3.9-4.2,7.7-0.6,11.7c1.5,1.7,3.5,3.2,5.8,4.5c2,1.2,4.2,2.2,6.6,3.1c2.7,1,5.5,1.9,8.2,2.8
		c0.5,0.2,0.8,0.3,1.1,0.5c1.1,0.6,1.3,1.4,0.6,2.4c-0.9,1.5-2,3-3.1,4.5c-0.9,1.3-2.7,1.8-5.2,1.3c-2.5-0.6-5-1.2-7.4-2
		c-4.4-1.4-8.4-3.2-11.9-5.2c-3.6-2.1-6.7-4.5-9.2-7.3c-5.8-6.5-5.7-13.2-0.9-19.9c0.9-1.3,2.2-2.5,3.3-3.8l-6.7-3.9
		c-1.1-0.7-1.1-1.7,0-2.4l4.5-2.6c1.1-0.7,2.9-0.7,4.1,0l5.5,3.2c1.2-0.7,2.4-1.4,3.7-2.1l-5.5-3.2c-1.1-0.7-1.1-1.7,0-2.4l4.5-2.6
		c1.1-0.7,2.9-0.7,4.1,0l7.1,4.1l0.9-0.3c7.9-2.4,16.3-3.5,25.3-2.9c7,0.5,13.3,2.2,19.1,4.6c2.3,0.9,4.4,2,6.3,3.1
		c5,2.9,8.9,6.3,11.8,10.1l0.6,1.1C295.4,182.2,294.6,183.2,292.3,183.7z"/>
</g>
</svg>
