<?xml version="1.0" encoding="utf-8"?>
<!-- Generator: Adobe Illustrator 22.1.0, SVG Export Plug-In . SVG Version: 6.00 Build 0)  -->
<svg version="1.1" id="Capa_1" xmlns="http://www.w3.org/2000/svg" xmlns:xlink="http://www.w3.org/1999/xlink" x="0px" y="0px"
	 viewBox="0 0 356.6 356.6" style="enable-background:new 0 0 356.6 356.6;" xml:space="preserve">
<style type="text/css">
	.st0{fill:#040404;}
</style>
<path class="st0" d="M181.6,0C120.8,0,59.2,30.5,59.2,88.9v148.6c0,65.7,53.4,119.1,119.1,119.1s119.1-53.4,119.1-119.1V88.9
	C297.4,27.8,237.3,0,181.6,0z M274.9,237.5c0,53.3-43.4,96.7-96.7,96.7s-96.7-43.4-96.7-96.7V168c20,6.1,57.7,15.2,102.2,15.2
	c28.5,0,59.8-3.8,91.1-14.6v68.9H274.9z M274.9,144.8c-81.7,31.2-168.4,7.7-193.3-0.4V88.9c0-43.2,51.5-66.5,99.9-66.5
	c46.5,0,93.4,20.5,93.4,66.5V144.8z M201,40.1v103.7c15.9,2.8,62.6-10.3,62.6-10.3C275.7,41,201,40.1,201,40.1z"/>
</svg>
