<?xml version="1.0" encoding="utf-8"?>
<!-- Generator: Adobe Illustrator 22.1.0, SVG Export Plug-In . SVG Version: 6.00 Build 0)  -->
<svg version="1.1" id="Capa_1" xmlns="http://www.w3.org/2000/svg" xmlns:xlink="http://www.w3.org/1999/xlink" x="0px" y="0px"
	 viewBox="0 0 356.6 356.6" style="enable-background:new 0 0 356.6 356.6;" xml:space="preserve">
<g>
	<path d="M181.6,0C120.8,0,59.2,30.5,59.2,88.9v148.6c0,65.7,53.4,119.1,119.1,119.1c65.7,0,119.1-53.4,119.1-119.1V88.9
		C297.4,27.8,237.3,0,181.6,0z M274.9,237.5c0,53.3-43.4,96.7-96.7,96.7c-53.3,0-96.7-43.4-96.7-96.7V168
		c20,6.1,57.7,15.2,102.2,15.2c28.5,0,59.8-3.8,91.1-14.6V237.5z M274.9,144.8c-81.7,31.2-168.4,7.7-193.3-0.4V88.9
		c0-43.2,51.5-66.5,99.9-66.5c46.5,0,93.4,20.5,93.4,66.5V144.8z M190.9,48.4v81.2c0,6.2-5,11.2-11.2,11.2c-6.2,0-11.2-5-11.2-11.2
		V48.4c0-6.2,5-11.2,11.2-11.2C185.9,37.2,190.9,42.2,190.9,48.4z"/>
</g>
</svg>
