<?xml version="1.0" encoding="utf-8"?>
<!-- Generator: Adobe Illustrator 22.1.0, SVG Export Plug-In . SVG Version: 6.00 Build 0)  -->
<svg version="1.1" id="Capa_1" xmlns="http://www.w3.org/2000/svg" xmlns:xlink="http://www.w3.org/1999/xlink" x="0px" y="0px"
	 viewBox="0 0 482.6 482.6" style="enable-background:new 0 0 482.6 482.6;" xml:space="preserve">
<style type="text/css">
	.st0{fill:#FFFFFF;}
</style>
<g>
	<g>
		<path class="st0" d="M117,203.2c13.4-1.8,26.8,2.8,36.3,12.3l24,24l22.7-22.6l-32.8-32.7c-5.1-5.1-5.1-13.4,0-18.5
			s13.4-5.1,18.5,0l32.8,32.8l22.7-22.6l-24.1-24.1c-9.5-9.5-14.1-23-12.3-36.3c4-30.4-5.7-62.2-29-85.6C152,6.1,119.4-3.5,88.5,1.1
			c-4.9,0.7-6.9,6.8-3.4,10.3L116,42.3c14.7,14.7,14.7,38.5,0,53.1l-19,19c-14.7,14.7-38.5,14.7-53.1,0l-31-30.9
			C9.4,80,3.4,82,2.6,86.9c-4.6,30.9,5,63.5,28.8,87.3C54.8,197.5,86.6,207.2,117,203.2z"/>
		<path class="st0" d="M309.2,243.9l-22.7,22.6l134.8,134.8c5.1,5.1,5.1,13.4,0,18.5s-13.4,5.1-18.5,0L268,285l-22.7,22.6
			l138.9,138.9c17.6,17.6,46.1,17.5,63.7-0.1s17.6-46.1,0.1-63.7L309.2,243.9z"/>
		<path class="st0" d="M361.3,153.9h59.9l59.9-119.7L451.2,4.3L331.4,64.1V124L168.6,286.3l-29.3-29.2l-118,118
			c-24.6,24.6-24.6,64.4,0,89s64.4,24.6,89,0l118-118l-29.9-29.9L361.3,153.9z"/>
	</g>
</g>
</svg>
