<?xml version="1.0" encoding="utf-8"?>
<!-- Generator: Adobe Illustrator 22.1.0, SVG Export Plug-In . SVG Version: 6.00 Build 0)  -->
<svg version="1.1"
	 id="svg10" inkscape:version="0.92.1 r15371" sodipodi:docname="noun_370530_cc.svg" xmlns:cc="http://creativecommons.org/ns#" xmlns:dc="http://purl.org/dc/elements/1.1/" xmlns:inkscape="http://www.inkscape.org/namespaces/inkscape" xmlns:rdf="http://www.w3.org/1999/02/22-rdf-syntax-ns#" xmlns:sodipodi="http://sodipodi.sourceforge.net/DTD/sodipodi-0.dtd" xmlns:svg="http://www.w3.org/2000/svg"
	 xmlns="http://www.w3.org/2000/svg" xmlns:xlink="http://www.w3.org/1999/xlink" x="0px" y="0px" viewBox="0 0 150.4 147.1"
	 style="enable-background:new 0 0 150.4 147.1;" xml:space="preserve">
<style type="text/css">
	.st0{fill:#252525;}
</style>
<sodipodi:namedview  bordercolor="#666666" borderopacity="1" fit-margin-bottom="9.9" fit-margin-left="10" fit-margin-right="10" fit-margin-top="10" gridtolerance="10" guidetolerance="10" id="namedview12" inkscape:current-layer="svg10" inkscape:cx="74.902279" inkscape:cy="60.991103" inkscape:pageopacity="0" inkscape:pageshadow="2" inkscape:window-height="480" inkscape:window-maximized="0" inkscape:window-width="640" inkscape:window-x="0" inkscape:window-y="0" inkscape:zoom="1.888" objecttolerance="10" pagecolor="#ffffff" showgrid="false">
	</sodipodi:namedview>
<path id="path4" inkscape:connector-curvature="0" class="st0" d="M140.2,58.4c-0.4-1.2-1.5-2.1-2.8-2.1H92.1L78,12.1
	c-0.4-1.2-1.5-2.1-2.8-2.1l0,0c-1.3,0-2.4,0.9-2.8,2.1L58.3,56.3H13c-1.3,0-2.4,0.9-2.8,2.1c-0.4,1.2,0,2.6,1,3.3L47.8,89
	l-14.1,44.2c-0.4,1.2,0,2.6,1,3.3c0.6,0.5,1.2,0.6,1.8,0.6s1.2-0.2,1.8-0.6l36.7-27.3l36.7,27.5c1,0.8,2.4,0.8,3.6,0
	c1-0.8,1.5-2.1,1-3.3l-14.1-44.2L139,61.9C140.2,61,140.7,59.7,140.2,58.4L140.2,58.4z M97.1,85.5c-1,0.8-1.5,2.1-1,3.3l11.9,37.5
	l-31-23.1c-1-0.8-2.4-0.8-3.4,0l-31.1,23.1l11.9-37.5c0.4-1.2,0-2.6-1-3.3L22.2,62.4h38.2c1.3,0,2.4-0.9,2.8-2.1l12-37.5l11.9,37.5
	c0.4,1.2,1.5,2.1,2.8,2.1h38.4L97.1,85.5z"/>
</svg>
