<?xml version="1.0" encoding="utf-8"?>
<!-- Generator: Adobe Illustrator 22.1.0, SVG Export Plug-In . SVG Version: 6.00 Build 0)  -->
<svg version="1.1" id="Слой_1" xmlns="http://www.w3.org/2000/svg" xmlns:xlink="http://www.w3.org/1999/xlink" x="0px" y="0px"
	 viewBox="0 0 1274 1280" style="enable-background:new 0 0 1274 1280;" xml:space="preserve">
<style type="text/css">
	.st0{fill:#FFFFFF;}
</style>
<g transform="translate(0.000000,1280.000000) scale(0.100000,-0.100000)">
	<path class="st0" d="M7550,12785c-231-66-361-306-290-537c37-122,133-225,250-269c41-16,94-23,210-30c213-13,413-35,581-65
		c1241-217,2322-963,2977-2052c360-599,575-1316,608-2022c3-74,12-162,20-195c30-120,110-215,234-274c71-34,81-36,175-36
		c93,0,105,3,172,34c121,57,212,169,243,300c15,62,8,256-16,485c-112,1082-532,2059-1237,2879c-169,197-469,486-677,653
		c-789,632-1738,1020-2738,1119C7816,12799,7615,12803,7550,12785z"/>
	<path class="st0" d="M7123,11229c-106-20-212-91-271-179c-128-190-80-454,105-582c82-56,133-69,328-84c484-38,895-152,1293-359
		c297-155,522-318,766-555c591-575,931-1321,982-2160c8-139,31-218,84-292c153-215,466-236,648-45c103,109,127,201,112,424
		c-69,1019-483,1936-1196,2646c-708,706-1613,1115-2629,1187C7188,11241,7181,11241,7123,11229z"/>
	<path class="st0" d="M2268,11129c-209-26-414-109-633-257c-585-395-1057-1074-1371-1969c-75-215-170-551-209-738
		c-143-696-4-1525,411-2452c407-911,1145-2008,1977-2939c298-334,1029-940,1675-1389c702-488,1385-857,2017-1090
		c146-54,212-75,410-136c68-20,279-69,400-93c243-46,392-60,660-60c308-1,432,15,744,93c780,197,1418,494,1926,898
		c136,108,367,337,467,463c158,199,289,425,337,585c50,162,70,394,52,590c-61,640-404,1174-991,1540c-239,149-683,352-958,439
		c-449,141-869,155-1211,40c-283-94-494-261-703-554c-192-271-361-431-560-531c-132-67-211-84-373-83c-122,1-152,4-230,28
		c-125,38-280,114-410,201c-522,350-1753,1601-2029,2062c-64,107-124,245-153,349c-34,125-38,309-9,414c73,267,283,519,635,760
		c478,327,678,867,565,1524c-59,345-216,763-438,1166c-249,453-561,766-951,955c-179,86-326,134-525,171
		C2687,11134,2375,11143,2268,11129z M2738,10436c364-79,662-310,884-685c196-332,363-750,414-1036c25-144,23-354-5-460
		c-46-177-138-303-302-415c-713-488-1030-1126-894-1796c44-217,161-484,307-704c317-477,1294-1491,1943-2016
		c336-271,649-430,977-496c157-31,416-31,565,1c455,96,869,402,1202,889c114,166,239,261,406,308c91,25,328,30,452,10
		c278-47,609-169,937-348c227-123,349-212,487-355c212-220,321-465,344-778c8-109-9-279-35-345c-83-210-354-524-633-734
		c-421-316-938-548-1593-716c-273-70-387-83-669-77c-235,6-324,16-547,63c-929,194-2085,834-3312,1833c-426,347-621,530-864,813
		C1725,4649,990,5925,760,6939c-58,257-73,393-74,656s5,314,60,545c232,971,671,1747,1209,2136c123,88,272,161,355,173
		C2401,10463,2651,10455,2738,10436z"/>
	<path class="st0" d="M6558,9611c-121-31-218-115-275-237c-26-54-28-69-28-174c0-106,2-120,28-172c43-88,116-162,202-204
		c67-33,85-37,226-50c296-28,537-93,774-208c236-114,389-221,574-401s310-348,420-565c141-278,196-482,240-890
		c19-172,102-294,248-363c119-55,275-48,389,19c59,35,141,125,170,188c39,85,46,148,34,293c-84,1008-643,1887-1521,2391
		c-364,210-793,343-1229,382C6661,9633,6638,9632,6558,9611z"/>
</g>
</svg>
