<?xml version="1.0" encoding="utf-8"?>
<!-- Generator: Adobe Illustrator 22.1.0, SVG Export Plug-In . SVG Version: 6.00 Build 0)  -->
<svg version="1.1"
	 id="svg12" inkscape:version="0.92.2 5c3e80d, 2017-08-06" sodipodi:docname="noun_411593_cc.svg" xmlns:cc="http://creativecommons.org/ns#" xmlns:dc="http://purl.org/dc/elements/1.1/" xmlns:inkscape="http://www.inkscape.org/namespaces/inkscape" xmlns:rdf="http://www.w3.org/1999/02/22-rdf-syntax-ns#" xmlns:sodipodi="http://sodipodi.sourceforge.net/DTD/sodipodi-0.dtd" xmlns:svg="http://www.w3.org/2000/svg"
	 xmlns="http://www.w3.org/2000/svg" xmlns:xlink="http://www.w3.org/1999/xlink" x="0px" y="0px" viewBox="0 0 149.1 135.3"
	 style="enable-background:new 0 0 149.1 135.3;" xml:space="preserve">
<style type="text/css">
	.st0{fill:#FFFFFF;}
</style>
<sodipodi:namedview  bordercolor="#666666" borderopacity="1" fit-margin-bottom="10" fit-margin-left="10" fit-margin-right="10" fit-margin-top="10" gridtolerance="10" guidetolerance="10" id="namedview14" inkscape:current-layer="svg12" inkscape:cx="55" inkscape:cy="72.648623" inkscape:pageopacity="0" inkscape:pageshadow="2" inkscape:window-height="480" inkscape:window-maximized="0" inkscape:window-width="640" inkscape:window-x="496" inkscape:window-y="94" inkscape:zoom="1.888" objecttolerance="10" pagecolor="#ffffff" showgrid="false">
	</sodipodi:namedview>
<g id="g6" transform="matrix(1.4348883,0,0,1.4348883,2.8255585,-4.0733844)">
	<path id="path2" inkscape:connector-curvature="0" class="st0" d="M85.6,38.2c-0.9-0.6-2.1-1.1-2.7-1.3c0.1-0.5,0.2-1.8,0.2-2.8
		c0-13.4-10.9-24.3-24.3-24.3c-7.7,0-15,3.7-19.6,9.9c-0.5,0.7-1,1.5-1.3,2c-0.6-0.3-1.4-0.8-2.3-1.1c-1.7-0.7-3.5-1-5.4-1
		c-8.5,0-15.4,6.9-15.4,15.4c0,1.1,0.2,2.3,0.3,2.7c-0.4,0.2-1.5,0.8-2.3,1.5C7.9,42.9,5,48.7,5,54.8c0,10.7,8.7,19.4,19.4,19.4h7.2
		c0.9,0,1.6-0.7,1.6-1.6c0-0.9-0.7-1.6-1.6-1.6h-7.2c-8.9,0-16.2-7.3-16.2-16.2c0-5.2,2.4-9.9,6.5-13c0.9-0.6,2.1-1.3,2.1-1.3
		c1.1-0.6,1.7-1.9,1.5-3.1c0,0-0.3-1.3-0.3-2.3c0-6.7,5.5-12.2,12.2-12.2c1.5,0,2.9,0.3,4.3,0.8c1.1,0.4,2.3,1.2,2.3,1.2
		c0.6,0.4,1.3,0.5,2,0.3c0.7-0.2,1.2-0.6,1.6-1.2c0,0,0.8-1.4,1.5-2.3c4-5.4,10.3-8.6,17-8.6C70.5,13,80,22.5,80,34.1
		c0,1.2-0.2,2.7-0.2,2.7c-0.2,1.3,0.6,2.5,1.8,3c0,0,1.5,0.6,2.4,1.2c4.9,3,7.8,8.1,7.8,13.8c0,8.9-7.3,16.2-16.2,16.2h-7.2
		c-0.9,0-1.6,0.7-1.6,1.6c0,0.9,0.7,1.6,1.6,1.6h7.2c10.7,0,19.4-8.7,19.4-19.4C95,48,91.5,41.8,85.6,38.2z"/>
	<path id="path4" inkscape:connector-curvature="0" class="st0" d="M50,90.2c0.9,0,1.6-0.7,1.6-1.6v-42l12.6,12.6
		c0.3,0.3,0.7,0.5,1.1,0.5c0.4,0,0.8-0.2,1.1-0.5c0.6-0.6,0.6-1.6,0-2.3L52.1,42.7c-1.1-1.1-3.2-1.1-4.3,0L33.6,57
		c-0.6,0.6-0.6,1.6,0,2.3c0.6,0.6,1.6,0.6,2.3,0l12.6-12.6v42C48.4,89.5,49.1,90.2,50,90.2z"/>
</g>
</svg>
