<?xml version="1.0" encoding="utf-8"?>
<!-- Generator: Adobe Illustrator 22.1.0, SVG Export Plug-In . SVG Version: 6.00 Build 0)  -->
<svg version="1.1" id="Capa_1" xmlns="http://www.w3.org/2000/svg" xmlns:xlink="http://www.w3.org/1999/xlink" x="0px" y="0px"
	 viewBox="0 0 489 489" style="enable-background:new 0 0 489 489;" xml:space="preserve">
<style type="text/css">
	.st0{fill:#040404;}
</style>
<g>
	<path class="st0" d="M488.1,461.9l-62.4-319.4c-2.1-9.4-10.4-16.6-19.8-16.6H358V39.6c0-21.8-17.7-39.5-39.5-39.5H169.8
		c-21.8,0-39.5,17.7-39.5,39.5v86.3H83.4c-9.4,0-17.7,7.3-19.8,16.6L0.2,465.1C-2.1,483.6,13.7,489,20,489h448.6c0,0,0.3,0,0.8,0
		C479.8,489,492.5,478.4,488.1,461.9z M171.9,40.6h145.6v85.3H171.9V40.6z M44.9,448.4l55.2-280.9h288.2l55.1,280.9H44.9z"/>
</g>
</svg>
